<?xml version="1.0" encoding="UTF-8"?>
<!DOCTYPE svg PUBLIC "-//W3C//DTD SVG 1.1//EN"
    "http://www.w3.org/Graphics/SVG/1.1/DTD/svg11.dtd">
<svg xmlns="http://www.w3.org/2000/svg" height="399.99999999999994" stroke-opacity="1" viewBox="0 0 400 400" font-size="1" width="399.99999999999994" xmlns:xlink="http://www.w3.org/1999/xlink" stroke="rgb(0,0,0)" version="1.1">
  <g>
    <defs>
    </defs>
    <g stroke-linejoin="miter" stroke-opacity="1.0" fill-opacity="1.0" stroke="rgb(112,128,144)" stroke-width="27.272727272727273" fill="rgb(176,196,222)" stroke-linecap="butt" stroke-miterlimit="10.0">
      <path d="M 400.0,200.0 c 0.0,-110.4569499661587 -89.5430500338413,-200.00000000000003 -199.99999999999997 -200.00000000000003c -110.4569499661587,-6.763314137619918e-15 -200.00000000000003,89.54305003384128 -200.00000000000003 199.99999999999994c -1.3526628275239836e-14,110.4569499661587 89.54305003384127,200.00000000000003 199.99999999999991 200.00000000000003c 110.4569499661587,2.0289942412859754e-14 200.00000000000003,-89.54305003384127 200.00000000000009 -199.99999999999994Z"/>
    </g>
    <defs>
    </defs>
    <g stroke-linejoin="miter" stroke-opacity="1.0" fill-opacity="1.0" stroke="rgb(0,0,0)" stroke-width="0.0" fill="rgb(0,0,0)" stroke-linecap="butt" stroke-miterlimit="10.0">
      <path d="M 218.18181818181813,200.0 c 0.0,-10.041540906014427 -8.140277275803754,-18.181818181818183 -18.18181818181818 -18.181818181818183c -10.041540906014427,-6.148467397836289e-16 -18.181818181818183,8.140277275803752 -18.181818181818183 18.181818181818176c -1.2296934795672578e-15,10.041540906014427 8.140277275803752,18.181818181818183 18.181818181818176 18.181818181818183c 10.041540906014427,1.8445402193508867e-15 18.181818181818183,-8.14027727580375 18.181818181818183 -18.181818181818176Z"/>
    </g>
    <defs>
    </defs>
    <g stroke-linejoin="miter" stroke-opacity="1.0" fill-opacity="0.0" stroke="rgb(0,0,0)" stroke-width="3.6363636363636367" fill="rgb(0,0,0)" stroke-linecap="butt" stroke-miterlimit="10.0">
      <path d="M 235.1979461800764,190.8666197773651 l -202.3881905354396,52.51693628015074 "/>
    </g>
    <defs>
    </defs>
    <g stroke-linejoin="miter" stroke-opacity="1.0" fill-opacity="0.0" stroke="rgb(0,0,0)" stroke-width="9.090909090909092" fill="rgb(0,0,0)" stroke-linecap="butt" stroke-miterlimit="10.0">
      <path d="M 190.09856773265977,225.41187305075792 l 59.40859360404103,-152.47123830454754 "/>
    </g>
    <defs>
    </defs>
    <g stroke-linejoin="miter" stroke-opacity="1.0" fill-opacity="1.0" stroke="rgb(0,0,0)" stroke-width="0.0" fill="rgb(192,192,192)" stroke-linecap="butt" stroke-miterlimit="10.0">
      <path d="M 206.36363636363632,200.0 c 0.0,-3.5145393171050494 -2.849097046531314,-6.363636363636364 -6.363636363636362 -6.363636363636364c -3.5145393171050494,-2.1519635892427011e-16 -6.363636363636364,2.8490970465313135 -6.363636363636364 6.3636363636363615c -4.3039271784854023e-16,3.5145393171050494 2.849097046531313,6.363636363636364 6.363636363636361 6.363636363636364c 3.5145393171050494,6.455890767728103e-16 6.363636363636364,-2.849097046531313 6.363636363636366 -6.3636363636363615Z"/>
    </g>
  </g>
</svg>